<?xml version="1.0" encoding="utf-8"?>
<!-- Generator: Adobe Illustrator 27.5.0, SVG Export Plug-In . SVG Version: 6.00 Build 0)  -->
<svg version="1.1" id="Capa_1" xmlns="http://www.w3.org/2000/svg" xmlns:xlink="http://www.w3.org/1999/xlink" x="0px" y="0px"
	 viewBox="0 0 2182 2064" style="enable-background:new 0 0 2182 2064;" xml:space="preserve">
<g>
	<path style="fill:#C4C4C4;" d="M1994.671,1060.846c-39.948-40.816-88.95-56.672-88.95-56.672l-0.005,0.044
		c0.279-13.158,0.247-26.367-0.128-39.594c-5.438-187.912-78.182-379.311-248.907-472.882
		c-342.605-187.807-536.066-28.251-784.996,54.468c-6.886-2.954-13.86-5.757-20.913-8.415c-0.046-0.017-0.093-0.036-0.139-0.053
		c-6.495-2.445-13.061-4.756-19.692-6.944c-0.218-0.072-0.435-0.144-0.653-0.215c-6.622-2.175-13.307-4.223-20.057-6.134
		c-0.09-0.026-0.182-0.05-0.272-0.076c-20.631-5.828-41.836-10.411-63.524-13.651c-0.005-0.001-0.008-0.002-0.013-0.002v0.001
		c-25.169-3.76-50.973-5.739-77.273-5.739c-16.887,0-33.573,0.808-50.017,2.379l0,0c-0.009,0.001-0.018,0.002-0.028,0.003
		c-7.372,0.705-14.69,1.581-21.961,2.59c-0.39,0.055-0.784,0.099-1.174,0.154c-6.962,0.983-13.867,2.125-20.729,3.381
		c-0.731,0.133-1.466,0.257-2.196,0.393c-6.644,1.246-13.233,2.633-19.777,4.129c-0.901,0.206-1.802,0.406-2.7,0.617
		c-6.435,1.508-12.816,3.142-19.147,4.887c-0.94,0.26-1.878,0.52-2.815,0.784c-6.304,1.777-12.553,3.667-18.747,5.674
		c-0.894,0.29-1.784,0.587-2.675,0.881c-6.24,2.061-12.427,4.226-18.547,6.516c-0.74,0.277-1.473,0.566-2.212,0.846
		c-6.264,2.377-12.473,4.855-18.604,7.467c-0.458,0.195-0.909,0.401-1.366,0.597c-12.852,5.519-25.403,11.542-37.622,18.052
		c-0.346,0.184-0.696,0.36-1.041,0.544c-5.587,2.993-11.089,6.106-16.534,9.297c-68.665-39.697-167.245-90.048-193.894-69.193
		c-28.767,22.513-0.213,159.659,20.703,244.087c-1.059,1.889-2.115,3.779-3.147,5.683c-0.383,0.708-0.753,1.423-1.132,2.132
		c-2.98,5.577-5.861,11.207-8.601,16.911c-0.233,0.485-0.452,0.976-0.684,1.461c-2.842,5.973-5.573,12.002-8.145,18.108
		c-0.017,0.039-0.032,0.078-0.048,0.118c-2.566,6.094-4.974,12.263-7.263,18.483c-0.179,0.486-0.369,0.966-0.547,1.454
		c-2.173,5.971-4.194,12.008-6.107,18.088c-0.246,0.779-0.502,1.553-0.742,2.334c-1.827,5.927-3.514,11.91-5.087,17.934
		c-0.245,0.939-0.495,1.877-0.735,2.818c-1.514,5.961-2.896,11.968-4.158,18.017c-0.21,1.008-0.417,2.016-0.619,3.026
		c-1.218,6.062-2.313,12.164-3.271,18.307c-0.153,0.974-0.292,1.949-0.438,2.925c-0.929,6.236-1.738,12.507-2.394,18.822
		c-0.088,0.84-0.157,1.685-0.24,2.526c-0.636,6.496-1.15,13.023-1.491,19.595c-0.029,0.558-0.042,1.119-0.068,1.677
		c-0.331,6.877-0.525,13.787-0.525,20.74c0,0.017-0.001,0.035-0.001,0.053c0,0.098,0.003,0.194,0.003,0.292
		c0.002,4.528,0.048,9.009,0.121,13.465c0.023,1.407,0.058,2.8,0.087,4.199c0.07,3.264,0.16,6.51,0.268,9.736
		c0.049,1.437,0.097,2.875,0.154,4.305c0.15,3.776,0.328,7.525,0.534,11.247c0.038,0.696,0.067,1.401,0.107,2.095
		c0.257,4.395,0.56,8.746,0.898,13.064c0.088,1.123,0.189,2.234,0.283,3.351c0.273,3.273,0.569,6.526,0.891,9.755
		c0.127,1.279,0.257,2.556,0.391,3.828c0.365,3.44,0.76,6.853,1.181,10.242c0.1,0.802,0.189,1.614,0.293,2.413
		c0.543,4.219,1.132,8.398,1.766,12.536c0.106,0.694,0.225,1.376,0.334,2.068c0.54,3.429,1.112,6.829,1.716,10.201
		c0.191,1.069,0.387,2.133,0.585,3.196c0.603,3.239,1.237,6.45,1.901,9.635c0.166,0.801,0.325,1.609,0.496,2.406
		c0.863,4.033,1.769,8.029,2.734,11.976c0.024,0.097,0.05,0.192,0.074,0.289c0.919,3.751,1.895,7.454,2.907,11.127
		c0.236,0.857,0.48,1.707,0.721,2.559c0.872,3.081,1.777,6.134,2.717,9.159c0.236,0.761,0.466,1.526,0.707,2.283
		c2.164,6.812,4.485,13.495,7.005,20.02c-42.354,16.533-73.191,66.233-81.9,127.226c-17.072,119.556,94.643,208.172,193.373,231.648
		c105.285,25.036,219.721,9.315,314.353-43.185c4.069-2.257,8.098-4.636,12.096-7.079c16.906,0.115,34.344-0.029,52.298-0.358
		c4.184,2.57,8.405,5.071,12.67,7.437c94.634,52.5,209.069,68.221,314.354,43.185c39.32-9.349,80.674-29.059,115.157-56.912
		c18.88,0.288,38.245,0.564,57.981,0.788c-0.665,0.605-1.361,1.167-2.017,1.785c-37.011,34.907-53.722,94.063-29.488,138.796
		c28.318,52.272,96.312,66.163,155.698,68.924c107.548,5.001,215.411-7.729,320.624-30.577
		c93.932-20.398,188.047-49.814,265.7-106.464c77.653-56.65,137.228-144.448,140.504-240.512
		C2054.997,1218.822,2053.078,1120.52,1994.671,1060.846z"/>
	<path style="fill:#352E35;" d="M1222.111,1272.952c-9.667-67.699-46.6-121.464-96.28-131.423c0.29-0.722,0.539-1.475,0.825-2.2
		c0.018,0.004,0.036,0.008,0.054,0.012c1.058-2.679,2.011-5.438,3.006-8.164c0.676-1.849,1.393-3.667,2.04-5.537
		c1.115-3.226,2.136-6.525,3.168-9.815c0.588-1.878,1.224-3.719,1.785-5.617c1.018-3.439,1.936-6.955,2.867-10.462
		c0.481-1.811,1.012-3.583,1.469-5.412c1.337-5.346,2.582-10.766,3.727-16.266c0.001-0.007,0.003-0.013,0.004-0.02
		c1.466-7.053,2.769-14.236,3.927-21.539c0.058-0.366,0.112-0.734,0.17-1.1c1.092-6.995,2.046-14.105,2.866-21.327
		c0.064-0.558,0.126-1.117,0.189-1.677c0.785-7.12,1.444-14.35,1.976-21.688c0.044-0.603,0.091-1.203,0.133-1.807
		c0.518-7.447,0.911-15.004,1.178-22.67c0.016-0.455,0.038-0.904,0.053-1.361c0.267-8.081,0.406-16.278,0.406-24.601
		c0-6.588-0.184-13.136-0.479-19.656c-0.034-0.744-0.053-1.491-0.091-2.234c-0.313-6.19-0.778-12.342-1.353-18.465
		c-0.095-1.009-0.185-2.019-0.287-3.026c-0.608-6.016-1.341-11.997-2.197-17.943c-0.145-1.003-0.298-2.003-0.45-3.004
		c-0.909-6.014-1.925-11.996-3.083-17.933c-0.145-0.741-0.306-1.477-0.454-2.217c-1.248-6.222-2.6-12.41-4.116-18.54
		c-0.013-0.054-0.028-0.107-0.041-0.161c-1.528-6.168-3.213-12.28-5.005-18.349c-0.177-0.598-0.341-1.2-0.52-1.797
		c-1.745-5.815-3.628-11.574-5.611-17.292c-0.299-0.86-0.591-1.722-0.895-2.58c-1.985-5.608-4.083-11.167-6.292-16.676
		c-0.344-0.857-0.693-1.71-1.041-2.564c-2.273-5.566-4.644-11.085-7.141-16.544c-0.284-0.621-0.58-1.236-0.867-1.856l-0.451-0.965
		c20.192-76.939,60.647-248.108,28.205-273.498c-28.172-22.048-136.751,35.493-205.372,75.888c0,0-5.498-3.419-11.244-6.784
		c-0.303-0.176-0.604-0.353-0.907-0.529c-5.788-3.373-11.653-6.641-17.599-9.789c-0.131-0.07-0.265-0.138-0.397-0.208
		c-5.319-2.81-10.717-5.501-16.157-8.127c-1.802-0.869-3.625-1.705-5.439-2.554c-3.759-1.759-7.541-3.478-11.354-5.147
		c-1.936-0.848-3.875-1.69-5.825-2.515c-6.089-2.575-12.221-5.077-18.441-7.42c-0.046-0.017-0.093-0.036-0.139-0.053
		c-6.495-2.445-13.061-4.757-19.692-6.944c-0.218-0.072-0.435-0.144-0.653-0.215c-6.622-2.175-13.308-4.223-20.057-6.134
		c-0.09-0.026-0.182-0.05-0.272-0.076c-20.63-5.828-41.837-10.411-63.524-13.651c-0.005-0.001-0.008-0.002-0.013-0.002v0.001
		c-25.169-3.76-50.973-5.739-77.273-5.739c-16.887,0-33.573,0.808-50.017,2.379l0,0c-0.009,0.001-0.018,0.002-0.028,0.003
		c-7.372,0.705-14.69,1.581-21.961,2.59c-0.39,0.055-0.784,0.099-1.174,0.154c-6.962,0.983-13.868,2.125-20.729,3.381
		c-0.731,0.133-1.466,0.257-2.196,0.393c-6.644,1.246-13.233,2.633-19.777,4.129c-0.901,0.206-1.802,0.406-2.7,0.617
		c-6.435,1.508-12.817,3.142-19.147,4.887c-0.94,0.26-1.878,0.52-2.815,0.784c-6.304,1.777-12.553,3.667-18.747,5.674
		c-0.894,0.29-1.784,0.587-2.675,0.881c-6.24,2.061-12.427,4.226-18.547,6.516c-0.74,0.277-1.473,0.566-2.212,0.846
		c-6.264,2.378-12.473,4.855-18.604,7.467c-0.458,0.195-0.909,0.401-1.366,0.597c-12.852,5.519-25.403,11.543-37.622,18.052
		c-0.346,0.184-0.696,0.36-1.041,0.544c-5.857,3.138-16.534,9.297-16.534,9.297c-68.665-39.697-167.245-90.048-193.894-69.193
		c-28.767,22.513-0.213,159.659,20.703,244.087c0,0-0.212,0.264-3.147,5.683c-0.383,0.708-0.753,1.423-1.132,2.132
		c-2.98,5.576-5.862,11.207-8.601,16.911c-0.233,0.485-0.452,0.976-0.684,1.461c-2.842,5.973-5.573,12.003-8.145,18.108
		c-0.017,0.039-0.032,0.078-0.048,0.118c-2.566,6.094-4.974,12.263-7.263,18.483c-0.179,0.486-0.369,0.966-0.547,1.454
		c-2.173,5.971-4.194,12.008-6.107,18.088c-0.246,0.779-0.502,1.553-0.742,2.334c-1.827,5.927-3.514,11.91-5.087,17.934
		c-0.245,0.939-0.495,1.877-0.735,2.818c-1.514,5.961-2.896,11.968-4.158,18.017c-0.21,1.008-0.417,2.016-0.619,3.026
		c-1.218,6.062-2.313,12.164-3.271,18.307c-0.153,0.974-0.292,1.949-0.438,2.925c-0.929,6.236-1.738,12.507-2.394,18.822
		c-0.088,0.84-0.157,1.685-0.24,2.526c-0.636,6.495-1.15,13.023-1.491,19.595c-0.029,0.558-0.042,1.119-0.068,1.677
		c-0.331,6.877-0.525,13.787-0.525,20.74c0,0.017-0.001,0.035-0.001,0.053c0,0.098,0.003,0.194,0.003,0.292
		c0.002,4.528,0.048,9.009,0.121,13.465c0.023,1.407,0.058,2.8,0.087,4.199c0.07,3.264,0.16,6.51,0.268,9.736
		c0.049,1.437,0.097,2.875,0.154,4.305c0.15,3.776,0.328,7.526,0.534,11.247c0.038,0.696,0.067,1.401,0.107,2.095
		c0.257,4.395,0.56,8.746,0.898,13.064c0.088,1.123,0.189,2.234,0.283,3.351c0.273,3.273,0.569,6.526,0.891,9.755
		c0.127,1.279,0.257,2.556,0.391,3.828c0.365,3.44,0.76,6.853,1.181,10.242c0.1,0.802,0.189,1.614,0.293,2.413
		c0.543,4.219,1.132,8.399,1.766,12.536c0.106,0.694,0.225,1.376,0.334,2.068c0.54,3.429,1.112,6.83,1.716,10.201
		c0.191,1.069,0.387,2.133,0.585,3.196c0.603,3.238,1.237,6.45,1.901,9.635c0.166,0.801,0.325,1.609,0.496,2.406
		c0.863,4.033,1.769,8.029,2.734,11.976c0.024,0.097,0.05,0.192,0.074,0.289c0.919,3.751,1.895,7.454,2.907,11.127
		c0.236,0.857,0.48,1.707,0.721,2.559c0.872,3.081,1.777,6.134,2.717,9.159c0.236,0.761,0.466,1.526,0.707,2.283
		c1.178,3.708,2.41,7.374,3.692,10.998c0.057,0.161,0.119,0.319,0.176,0.48c1.249,3.512,2.542,6.988,3.892,10.419
		c-0.248-0.629-0.511-1.245-0.756-1.877c-42.354,16.533-73.191,66.233-81.9,127.226c-17.072,119.556,94.643,208.172,193.373,231.648
		c105.285,25.036,219.721,9.315,314.353-43.185c4.069-2.257,8.098-4.636,12.096-7.079c9.264-5.66,18.209-11.876,26.436-18.836
		c8.056,6.815,16.802,12.912,25.862,18.478c4.184,2.57,8.405,5.071,12.67,7.437c94.634,52.5,209.069,68.221,314.354,43.185
		c39.32-9.349,80.674-29.059,115.157-56.912C1195.999,1405.605,1232.384,1344.895,1222.111,1272.952z"/>
	<path style="fill:#E0E0E0;" d="M858.558,997.762c-115.854-139.99-109.068-320.857-112.137-487.044
		c-25.169-3.76-50.973-5.739-77.273-5.739c-16.887,0-33.573,0.808-50.017,2.379c27.334,120.464-0.844,253.271-42.721,362.154
		c-56.823,142.055-192.342,284.004-354.066,300.992c56.693,116.018,180.785,180.001,414.04,182.802
		c5.333,0.064,10.716,0.1,16.164,0.1c278.802,0,417.954-74.71,473.285-211.877c0.29-0.722,0.539-1.475,0.825-2.2
		C1025.335,1119.094,928.844,1078.088,858.558,997.762z"/>
	<path style="fill:#A6A6A6;" d="M1492.245,1413.325c80.676,8.854,166.603,9.983,238.967-26.766
		c80.482-40.872,120.932-115.508,140.654-170.302c6.815-21.69,12.687-44.28,17.539-67.544l16.311-144.497
		c0.279-13.158,0.247-26.367-0.128-39.594c-94.854,62.637-95.778,233.055-204.687,275.736
		c-67.1,26.265-147.743-16.57-178.729-81.669c-31.036-65.049-20.007-143.896,11.646-208.637
		c31.703-64.74,81.823-118.297,131.224-170.828c-104.036,23.906-188.116,107.012-231.567,204.533
		c-43.502,97.521-50.531,207.867-40.476,314.16c-55.311-179.04-146.312-346.99-265.778-491.349c1.335,3.485,2.626,6.99,3.873,10.513
		c0.304,0.858,0.597,1.72,0.895,2.58c1.982,5.718,3.866,11.477,5.611,17.292c0.179,0.597,0.343,1.199,0.52,1.797
		c1.791,6.07,3.477,12.181,5.005,18.349c0.013,0.054,0.028,0.107,0.041,0.161c1.515,6.13,2.868,12.318,4.116,18.54
		c0.148,0.74,0.309,1.476,0.454,2.217c1.158,5.937,2.174,11.919,3.083,17.933c0.152,1.001,0.305,2.001,0.45,3.004
		c0.855,5.946,1.589,11.927,2.197,17.943c0.102,1.008,0.192,2.017,0.287,3.026c0.575,6.123,1.04,12.274,1.353,18.465
		c0.038,0.743,0.057,1.49,0.091,2.234c0.296,6.52,0.48,13.067,0.48,19.655c0,8.324-0.14,16.52-0.406,24.602
		c-0.015,0.456-0.037,0.906-0.053,1.361c-0.268,7.667-0.66,15.224-1.178,22.67c-0.042,0.605-0.09,1.204-0.133,1.807
		c-0.533,7.337-1.191,14.567-1.976,21.688c-0.063,0.56-0.125,1.118-0.189,1.677c-0.82,7.222-1.773,14.332-2.866,21.327
		c-0.058,0.366-0.112,0.734-0.17,1.1c-1.157,7.303-2.46,14.486-3.927,21.539c-0.001,0.007-0.003,0.013-0.004,0.02
		c-1.145,5.5-2.39,10.92-3.727,16.266c-0.457,1.829-0.987,3.601-1.469,5.412c-0.931,3.507-1.849,7.023-2.867,10.462
		c-0.562,1.898-1.196,3.74-1.785,5.617c-1.032,3.29-2.052,6.589-3.168,9.815c-0.647,1.87-1.364,3.688-2.04,5.537
		c-0.995,2.726-1.948,5.485-3.006,8.164c-0.019-0.004-0.036-0.008-0.054-0.012c-0.286,0.725-0.535,1.478-0.825,2.2
		c49.68,9.959,86.612,63.724,96.28,131.423c10.273,71.942-26.112,132.653-78.216,174.736c18.88,0.288,38.245,0.564,57.981,0.788
		c36.894-33.56,88.545-47.047,138.496-48.576C1391.223,1398.344,1441.673,1407.775,1492.245,1413.325z"/>
	<path style="fill:#D991A4;" d="M280.455,686.426c0.484-0.6,0.978-1.191,1.465-1.788c4.031-4.951,8.151-9.836,12.39-14.625
		c0.306-0.346,0.622-0.684,0.93-1.029c4.451-4.998,8.998-9.917,13.669-14.73c0.008-0.007,0.014-0.015,0.022-0.022
		c4.653-4.795,9.432-9.48,14.298-14.084c0.375-0.356,0.743-0.719,1.12-1.074c4.671-4.391,9.452-8.68,14.311-12.891
		c0.595-0.515,1.18-1.036,1.777-1.548c4.765-4.089,9.625-8.079,14.56-11.99c0.72-0.57,1.437-1.142,2.159-1.708
		c4.908-3.842,9.899-7.592,14.968-11.254c0.716-0.518,1.431-1.036,2.151-1.55c-42.235-23.637-95.47-49.08-110.855-37.039
		c-16.232,12.703-3.642,83.02,8.664,136.018C274.817,693.509,277.615,689.951,280.455,686.426z"/>
	<path style="fill:#D991A4;" d="M993.378,620.849c0.244,0.204,0.491,0.406,0.735,0.61c4.917,4.132,9.735,8.361,14.467,12.675
		c0.406,0.37,0.812,0.74,1.217,1.112c4.668,4.285,9.247,8.652,13.728,13.109c0.348,0.347,0.691,0.697,1.038,1.044
		c4.567,4.571,9.048,9.217,13.412,13.961c0.069,0.075,0.136,0.152,0.205,0.227c8.885,9.669,17.332,19.698,25.336,30.047
		c0.322,0.416,0.648,0.827,0.968,1.243c3.746,4.878,7.381,9.835,10.924,14.854c0.439,0.622,0.878,1.243,1.314,1.868
		c2.141,3.067,4.244,6.159,6.307,9.277c13.305-52.813,33.246-145.048,14.419-159.783c-16.98-13.289-80.058,19.071-123.568,44.278
		c0.642,0.484,1.245,1.01,1.885,1.496C981.742,611.415,987.641,616.048,993.378,620.849z"/>
	<path style="fill:#352E35;" d="M606.224,1033.723c0,19.277,40.15,59.69,64.876,65.166c-0.197,7.352-0.751,15.451-1.955,23.391
		c-1.564,10.402-4.282,20.499-8.462,28.093c-2.796,5.083-6.767,8.767-11.461,11.265c-4.688,2.491-10.114,3.743-15.58,3.742
		c-7.584,0.008-15.164-2.426-20.821-6.89c-5.658-4.494-9.528-10.8-10.227-19.484c-0.218-2.825-2.683-4.939-5.507-4.722
		c-2.825,0.217-4.939,2.682-4.722,5.507c0.849,11.5,6.405,20.75,14.115,26.765c7.71,6.046,17.438,9.075,27.162,9.084
		c7.015-0.002,14.071-1.59,20.388-4.937c6.311-3.339,11.869-8.491,15.648-15.395c2.888-5.286,4.999-11.2,6.644-17.349
		c1.646,6.149,3.756,12.064,6.646,17.349c3.78,6.904,9.337,12.056,15.648,15.395c6.317,3.347,13.371,4.936,20.387,4.937
		c9.724-0.009,19.451-3.037,27.161-9.084c7.709-6.015,13.266-15.264,14.118-26.765c0.217-2.825-1.897-5.29-4.722-5.507
		c-2.825-0.218-5.29,1.896-5.507,4.721c-0.701,8.684-4.572,14.99-10.23,19.485c-5.657,4.464-13.237,6.898-20.82,6.89
		c-5.466,0.001-10.891-1.251-15.579-3.742c-4.694-2.498-8.665-6.181-11.46-11.265c-4.183-7.594-6.901-17.692-8.464-28.095
		c-1.203-7.939-1.758-16.037-1.955-23.389c24.726-5.474,64.877-45.889,64.877-65.167c0-20.703-31.384-37.485-70.098-37.485
		C637.608,996.238,606.224,1013.02,606.224,1033.723z"/>
	<path style="fill:#FFFFFF;" d="M921.894,918.303c5.84,1.431,12.272,2.286,18.963,2.286c12.444,0,25.875-2.973,37.598-10.985
		c11.73-7.993,21.479-21.047,26.557-40.107c0.732-2.737-0.891-5.55-3.627-6.282c-2.736-0.734-5.55,0.89-6.282,3.627
		c-4.609,17.087-12.815,27.678-22.441,34.294c-9.633,6.595-20.958,9.193-31.805,9.194c-5.811,0.001-11.457-0.75-16.519-1.992
		c-24.453-5.982-46.538-21.753-60.131-42.941c-1.532-2.383-4.706-3.074-7.089-1.543c-2.383,1.531-3.074,4.705-1.543,7.089l0,0
		C870.658,894.397,894.813,911.647,921.894,918.303z"/>
	<path style="fill:#FFFFFF;" d="M381.12,910.33c-10.847,0-22.174-2.599-31.806-9.194c-9.625-6.616-17.83-17.206-22.437-34.294
		c-0.734-2.737-3.546-4.361-6.283-3.628c-2.737,0.733-4.361,3.546-3.628,6.283c5.076,19.06,14.825,32.114,26.555,40.107
		c11.723,8.012,25.154,10.986,37.599,10.985c6.69,0,13.123-0.855,18.964-2.286c27.081-6.656,51.236-23.906,66.32-47.361
		c1.53-2.384,0.84-5.557-1.544-7.088c-2.384-1.531-5.558-0.84-7.089,1.544l0-0.001c-13.594,21.188-35.678,36.959-60.131,42.941
		C392.577,909.58,386.932,910.331,381.12,910.33z"/>
	<path style="fill:#352E35;" d="M1994.671,1060.846c-39.948-40.816-88.95-56.672-88.95-56.672l-0.005,0.044l-16.311,144.497
		c-4.852,23.264-10.724,45.854-17.539,67.544c-19.722,54.794-60.172,129.43-140.654,170.302
		c-72.364,36.75-158.291,35.62-238.967,26.766c-50.572-5.55-101.022-14.982-151.874-13.424
		c-49.952,1.53-101.602,15.016-138.496,48.576c-0.665,0.605-1.361,1.167-2.017,1.785c-37.011,34.907-53.722,94.063-29.488,138.796
		c28.318,52.272,96.312,66.163,155.698,68.924c107.548,5.001,215.411-7.729,320.624-30.577
		c93.932-20.398,188.047-49.814,265.7-106.464c77.653-56.65,137.228-144.448,140.504-240.512
		C2054.997,1218.822,2053.078,1120.52,1994.671,1060.846z"/>
</g>
</svg>
